<mxfile host="app.diagrams.net" agent="Mozilla/5.0 (Windows NT 10.0; Win64; x64) AppleWebKit/537.36 (KHTML, like Gecko) Chrome/137.0.0.0 Safari/537.36" version="27.1.6">
  <diagram name="Page-1" id="KkUB05_lwUXtTThurRP6">
    <mxGraphModel grid="1" page="1" gridSize="10" guides="1" tooltips="1" connect="1" arrows="1" fold="1" pageScale="1" pageWidth="850" pageHeight="1100" math="0" shadow="0">
      <root>
        <mxCell id="0" />
        <mxCell id="1" parent="0" />
        <mxCell id="46PoKYGcJyENt13Czsbc-1" value="Curso" style="swimlane;fontStyle=1;align=center;verticalAlign=top;childLayout=stackLayout;horizontal=1;startSize=26;horizontalStack=0;resizeParent=1;resizeParentMax=0;resizeLast=0;collapsible=1;marginBottom=0;whiteSpace=wrap;html=1;" vertex="1" parent="1">
          <mxGeometry x="350" y="445" width="240" height="210" as="geometry" />
        </mxCell>
        <mxCell id="46PoKYGcJyENt13Czsbc-2" value="- id: int&lt;div&gt;- nome: String&lt;/div&gt;&lt;div&gt;- turno: String&lt;/div&gt;&lt;div&gt;- matriculaDoProfessor: int&lt;/div&gt;&lt;div&gt;- matriculasAlunos: int[]&lt;/div&gt;&lt;div&gt;- aulas: List&amp;lt;Aulas&amp;gt;&lt;/div&gt;" style="text;strokeColor=none;fillColor=none;align=left;verticalAlign=top;spacingLeft=4;spacingRight=4;overflow=hidden;rotatable=0;points=[[0,0.5],[1,0.5]];portConstraint=eastwest;whiteSpace=wrap;html=1;" vertex="1" parent="46PoKYGcJyENt13Czsbc-1">
          <mxGeometry y="26" width="240" height="94" as="geometry" />
        </mxCell>
        <mxCell id="46PoKYGcJyENt13Czsbc-3" value="" style="line;strokeWidth=1;fillColor=none;align=left;verticalAlign=middle;spacingTop=-1;spacingLeft=3;spacingRight=3;rotatable=0;labelPosition=right;points=[];portConstraint=eastwest;strokeColor=inherit;" vertex="1" parent="46PoKYGcJyENt13Czsbc-1">
          <mxGeometry y="120" width="240" height="8" as="geometry" />
        </mxCell>
        <mxCell id="46PoKYGcJyENt13Czsbc-4" value="+ getNome(): String&lt;div&gt;# setNome(nome: String): boolean&lt;/div&gt;&lt;div&gt;# matricularAluno(matricula: int): boolean&lt;/div&gt;&lt;div&gt;# trocarProfessor (matricula: int): boolean&lt;/div&gt;&lt;div&gt;# registrarAula (aula: Aula): boolean&lt;/div&gt;" style="text;strokeColor=none;fillColor=none;align=left;verticalAlign=top;spacingLeft=4;spacingRight=4;overflow=hidden;rotatable=0;points=[[0,0.5],[1,0.5]];portConstraint=eastwest;whiteSpace=wrap;html=1;" vertex="1" parent="46PoKYGcJyENt13Czsbc-1">
          <mxGeometry y="128" width="240" height="82" as="geometry" />
        </mxCell>
        <mxCell id="46PoKYGcJyENt13Czsbc-5" value="Aula" style="swimlane;fontStyle=1;align=center;verticalAlign=top;childLayout=stackLayout;horizontal=1;startSize=26;horizontalStack=0;resizeParent=1;resizeParentMax=0;resizeLast=0;collapsible=1;marginBottom=0;whiteSpace=wrap;html=1;" vertex="1" parent="1">
          <mxGeometry x="660" y="705" width="290" height="210" as="geometry" />
        </mxCell>
        <mxCell id="46PoKYGcJyENt13Czsbc-6" value="- id: int&lt;div&gt;- dataDaAula: Date&lt;/div&gt;&lt;div&gt;&lt;div&gt;- matriculaDoProfessor: int&lt;/div&gt;&lt;div&gt;- assuntoDaAula: String&lt;/div&gt;&lt;div&gt;- chamada: List&amp;lt;Presenca&amp;gt;&lt;/div&gt;&lt;/div&gt;&lt;div&gt;- notasDeAtividadeAvaliativa: List&amp;lt;Nota&amp;gt;&lt;/div&gt;" style="text;strokeColor=none;fillColor=none;align=left;verticalAlign=top;spacingLeft=4;spacingRight=4;overflow=hidden;rotatable=0;points=[[0,0.5],[1,0.5]];portConstraint=eastwest;whiteSpace=wrap;html=1;" vertex="1" parent="46PoKYGcJyENt13Czsbc-5">
          <mxGeometry y="26" width="290" height="94" as="geometry" />
        </mxCell>
        <mxCell id="46PoKYGcJyENt13Czsbc-7" value="" style="line;strokeWidth=1;fillColor=none;align=left;verticalAlign=middle;spacingTop=-1;spacingLeft=3;spacingRight=3;rotatable=0;labelPosition=right;points=[];portConstraint=eastwest;strokeColor=inherit;" vertex="1" parent="46PoKYGcJyENt13Czsbc-5">
          <mxGeometry y="120" width="290" height="8" as="geometry" />
        </mxCell>
        <mxCell id="46PoKYGcJyENt13Czsbc-8" value="+ getDataDaAula(): Date&lt;div&gt;# setDataDaAula(data: Date): boolean&lt;/div&gt;&lt;div&gt;# realizarChamada(List&amp;lt;Presencas&amp;gt;): boolean&lt;/div&gt;&lt;div&gt;# listarFaltosos (): List&amp;lt;Aluno&amp;gt;&lt;/div&gt;&lt;div&gt;# registrarNotasDeAtividade (List &amp;lt;Nota&amp;gt;): boolean&lt;/div&gt;" style="text;strokeColor=none;fillColor=none;align=left;verticalAlign=top;spacingLeft=4;spacingRight=4;overflow=hidden;rotatable=0;points=[[0,0.5],[1,0.5]];portConstraint=eastwest;whiteSpace=wrap;html=1;" vertex="1" parent="46PoKYGcJyENt13Czsbc-5">
          <mxGeometry y="128" width="290" height="82" as="geometry" />
        </mxCell>
        <mxCell id="46PoKYGcJyENt13Czsbc-9" value="Instrumento" style="swimlane;fontStyle=1;align=center;verticalAlign=top;childLayout=stackLayout;horizontal=1;startSize=26;horizontalStack=0;resizeParent=1;resizeParentMax=0;resizeLast=0;collapsible=1;marginBottom=0;whiteSpace=wrap;html=1;" vertex="1" parent="1">
          <mxGeometry x="1050" y="705" width="310" height="210" as="geometry" />
        </mxCell>
        <mxCell id="46PoKYGcJyENt13Czsbc-10" value="- id: int&lt;div&gt;- numeroDeSerie: String&lt;br&gt;&lt;div&gt;- nome: String&lt;br&gt;&lt;div&gt;- tipo: String&lt;/div&gt;&lt;div&gt;- emUso: boolean&lt;br&gt;&lt;/div&gt;&lt;/div&gt;&lt;div&gt;- matriculaDoUsuarioAtual: int&lt;/div&gt;&lt;/div&gt;" style="text;strokeColor=none;fillColor=none;align=left;verticalAlign=top;spacingLeft=4;spacingRight=4;overflow=hidden;rotatable=0;points=[[0,0.5],[1,0.5]];portConstraint=eastwest;whiteSpace=wrap;html=1;" vertex="1" parent="46PoKYGcJyENt13Czsbc-9">
          <mxGeometry y="26" width="310" height="94" as="geometry" />
        </mxCell>
        <mxCell id="46PoKYGcJyENt13Czsbc-11" value="" style="line;strokeWidth=1;fillColor=none;align=left;verticalAlign=middle;spacingTop=-1;spacingLeft=3;spacingRight=3;rotatable=0;labelPosition=right;points=[];portConstraint=eastwest;strokeColor=inherit;" vertex="1" parent="46PoKYGcJyENt13Czsbc-9">
          <mxGeometry y="120" width="310" height="8" as="geometry" />
        </mxCell>
        <mxCell id="46PoKYGcJyENt13Czsbc-12" value="+ getNome(): String&lt;div&gt;# setNumeroDeSerie(numeroDeSerie: String): boolean&lt;/div&gt;&lt;div&gt;# realizarEmprestimo(matriculaDoAluno: int): boolean&lt;br&gt;&lt;/div&gt;&lt;div&gt;# devolverInstrumento(): boolean&lt;/div&gt;&lt;div&gt;# identificarUsuarioAtual(): int&lt;/div&gt;" style="text;strokeColor=none;fillColor=none;align=left;verticalAlign=top;spacingLeft=4;spacingRight=4;overflow=hidden;rotatable=0;points=[[0,0.5],[1,0.5]];portConstraint=eastwest;whiteSpace=wrap;html=1;" vertex="1" parent="46PoKYGcJyENt13Czsbc-9">
          <mxGeometry y="128" width="310" height="82" as="geometry" />
        </mxCell>
        <mxCell id="46PoKYGcJyENt13Czsbc-13" value="Aluno" style="swimlane;fontStyle=1;align=center;verticalAlign=top;childLayout=stackLayout;horizontal=1;startSize=26;horizontalStack=0;resizeParent=1;resizeParentMax=0;resizeLast=0;collapsible=1;marginBottom=0;whiteSpace=wrap;html=1;" vertex="1" parent="1">
          <mxGeometry x="660" y="185" width="280" height="220" as="geometry" />
        </mxCell>
        <mxCell id="46PoKYGcJyENt13Czsbc-14" value="- matricula: int&lt;div&gt;- nome: String&lt;/div&gt;&lt;div&gt;- email: String&lt;/div&gt;&lt;div&gt;- dataDeEntrada: String&lt;/div&gt;&lt;div&gt;- statusAtual: Enum&lt;/div&gt;&lt;div&gt;- instrumentosEmEmprestimo: int[]&lt;/div&gt;&lt;div&gt;- cursosMatriculados: int[]&lt;/div&gt;" style="text;strokeColor=none;fillColor=none;align=left;verticalAlign=top;spacingLeft=4;spacingRight=4;overflow=hidden;rotatable=0;points=[[0,0.5],[1,0.5]];portConstraint=eastwest;whiteSpace=wrap;html=1;" vertex="1" parent="46PoKYGcJyENt13Czsbc-13">
          <mxGeometry y="26" width="280" height="104" as="geometry" />
        </mxCell>
        <mxCell id="46PoKYGcJyENt13Czsbc-15" value="" style="line;strokeWidth=1;fillColor=none;align=left;verticalAlign=middle;spacingTop=-1;spacingLeft=3;spacingRight=3;rotatable=0;labelPosition=right;points=[];portConstraint=eastwest;strokeColor=inherit;" vertex="1" parent="46PoKYGcJyENt13Czsbc-13">
          <mxGeometry y="130" width="280" height="8" as="geometry" />
        </mxCell>
        <mxCell id="46PoKYGcJyENt13Czsbc-16" value="+ getNome(): String&lt;div&gt;# setNome(nome: String): boolean&lt;/div&gt;&lt;div&gt;# solicitarTrancamento(idDoCurso: int): boolean&lt;/div&gt;&lt;div&gt;# enviarEmailPessoal (conteudo: String): boolean&lt;/div&gt;&lt;div&gt;# solicitarCancelamentoDeMatrÃ­cula(): boolean&lt;/div&gt;" style="text;strokeColor=none;fillColor=none;align=left;verticalAlign=top;spacingLeft=4;spacingRight=4;overflow=hidden;rotatable=0;points=[[0,0.5],[1,0.5]];portConstraint=eastwest;whiteSpace=wrap;html=1;" vertex="1" parent="46PoKYGcJyENt13Czsbc-13">
          <mxGeometry y="138" width="280" height="82" as="geometry" />
        </mxCell>
        <mxCell id="46PoKYGcJyENt13Czsbc-17" value="Professor" style="swimlane;fontStyle=1;align=center;verticalAlign=top;childLayout=stackLayout;horizontal=1;startSize=26;horizontalStack=0;resizeParent=1;resizeParentMax=0;resizeLast=0;collapsible=1;marginBottom=0;whiteSpace=wrap;html=1;" vertex="1" parent="1">
          <mxGeometry x="1050" y="185" width="240" height="250" as="geometry" />
        </mxCell>
        <mxCell id="46PoKYGcJyENt13Czsbc-18" value="- matricula: int&lt;div&gt;- nome: String&lt;/div&gt;&lt;div&gt;- email: String&lt;/div&gt;&lt;div&gt;- ativo: boolean&lt;/div&gt;&lt;div&gt;- dataDeEntrada: String&lt;/div&gt;&lt;div&gt;- dataDeSaida: String&lt;/div&gt;&lt;div&gt;- cursosEmResponsabilidade: List&amp;lt;Curso&amp;gt;&lt;/div&gt;&lt;div&gt;- salario: int&lt;/div&gt;&lt;div&gt;- pix: String&lt;/div&gt;" style="text;strokeColor=none;fillColor=none;align=left;verticalAlign=top;spacingLeft=4;spacingRight=4;overflow=hidden;rotatable=0;points=[[0,0.5],[1,0.5]];portConstraint=eastwest;whiteSpace=wrap;html=1;" vertex="1" parent="46PoKYGcJyENt13Czsbc-17">
          <mxGeometry y="26" width="240" height="134" as="geometry" />
        </mxCell>
        <mxCell id="46PoKYGcJyENt13Czsbc-19" value="" style="line;strokeWidth=1;fillColor=none;align=left;verticalAlign=middle;spacingTop=-1;spacingLeft=3;spacingRight=3;rotatable=0;labelPosition=right;points=[];portConstraint=eastwest;strokeColor=inherit;" vertex="1" parent="46PoKYGcJyENt13Czsbc-17">
          <mxGeometry y="160" width="240" height="8" as="geometry" />
        </mxCell>
        <mxCell id="46PoKYGcJyENt13Czsbc-20" value="+ getNome(): String&lt;div&gt;# setNome(nome: String): boolean&lt;/div&gt;&lt;div&gt;# adicionarCurso(idCurso: int): boolean&lt;/div&gt;&lt;div&gt;# desvincularDaInstituicao (): boolean&lt;/div&gt;&lt;div&gt;# depositarSalario (): boolean&lt;/div&gt;" style="text;strokeColor=none;fillColor=none;align=left;verticalAlign=top;spacingLeft=4;spacingRight=4;overflow=hidden;rotatable=0;points=[[0,0.5],[1,0.5]];portConstraint=eastwest;whiteSpace=wrap;html=1;" vertex="1" parent="46PoKYGcJyENt13Czsbc-17">
          <mxGeometry y="168" width="240" height="82" as="geometry" />
        </mxCell>
        <mxCell id="46PoKYGcJyENt13Czsbc-24" value="" style="endArrow=none;html=1;rounded=0;entryX=-0.005;entryY=0.611;entryDx=0;entryDy=0;entryPerimeter=0;" edge="1" parent="1" target="46PoKYGcJyENt13Czsbc-14">
          <mxGeometry width="50" height="50" relative="1" as="geometry">
            <mxPoint x="460" y="445" as="sourcePoint" />
            <mxPoint x="460" y="285" as="targetPoint" />
            <Array as="points">
              <mxPoint x="460" y="275" />
            </Array>
          </mxGeometry>
        </mxCell>
        <mxCell id="46PoKYGcJyENt13Czsbc-25" value="Possui" style="text;html=1;align=center;verticalAlign=middle;whiteSpace=wrap;rounded=0;" vertex="1" parent="1">
          <mxGeometry x="430" y="235" width="60" height="30" as="geometry" />
        </mxCell>
        <mxCell id="46PoKYGcJyENt13Czsbc-26" value="1:N" style="text;html=1;align=center;verticalAlign=middle;whiteSpace=wrap;rounded=0;" vertex="1" parent="1">
          <mxGeometry x="460" y="415" width="60" height="30" as="geometry" />
        </mxCell>
        <mxCell id="46PoKYGcJyENt13Czsbc-27" value="N:1" style="text;html=1;align=center;verticalAlign=middle;whiteSpace=wrap;rounded=0;" vertex="1" parent="1">
          <mxGeometry x="600" y="275" width="60" height="30" as="geometry" />
        </mxCell>
        <mxCell id="46PoKYGcJyENt13Czsbc-28" value="" style="endArrow=open;html=1;endSize=12;startArrow=diamondThin;startSize=14;startFill=1;edgeStyle=orthogonalEdgeStyle;align=left;verticalAlign=bottom;rounded=0;entryX=0.001;entryY=-0.033;entryDx=0;entryDy=0;entryPerimeter=0;exitX=0.415;exitY=1.014;exitDx=0;exitDy=0;exitPerimeter=0;" edge="1" parent="1" source="46PoKYGcJyENt13Czsbc-4" target="46PoKYGcJyENt13Czsbc-8">
          <mxGeometry x="-1" y="3" relative="1" as="geometry">
            <mxPoint x="450" y="675" as="sourcePoint" />
            <mxPoint x="610" y="675" as="targetPoint" />
            <Array as="points">
              <mxPoint x="450" y="830" />
            </Array>
          </mxGeometry>
        </mxCell>
        <mxCell id="46PoKYGcJyENt13Czsbc-30" value="1" style="text;html=1;align=center;verticalAlign=middle;whiteSpace=wrap;rounded=0;" vertex="1" parent="1">
          <mxGeometry x="450" y="655" width="60" height="30" as="geometry" />
        </mxCell>
        <mxCell id="46PoKYGcJyENt13Czsbc-31" value="N:1" style="text;html=1;align=center;verticalAlign=middle;whiteSpace=wrap;rounded=0;" vertex="1" parent="1">
          <mxGeometry x="600" y="795" width="60" height="30" as="geometry" />
        </mxCell>
        <mxCell id="46PoKYGcJyENt13Czsbc-32" value="" style="endArrow=open;html=1;endSize=12;startArrow=diamondThin;startSize=14;startFill=0;edgeStyle=orthogonalEdgeStyle;align=left;verticalAlign=bottom;rounded=0;" edge="1" parent="1" source="46PoKYGcJyENt13Czsbc-6" target="46PoKYGcJyENt13Czsbc-10">
          <mxGeometry x="-1" y="3" relative="1" as="geometry">
            <mxPoint x="900" y="755" as="sourcePoint" />
            <mxPoint x="1060" y="755" as="targetPoint" />
            <Array as="points">
              <mxPoint x="990" y="825" />
              <mxPoint x="990" y="825" />
            </Array>
          </mxGeometry>
        </mxCell>
        <mxCell id="46PoKYGcJyENt13Czsbc-34" value="N:1" style="text;html=1;align=center;verticalAlign=middle;whiteSpace=wrap;rounded=0;" vertex="1" parent="1">
          <mxGeometry x="990" y="795" width="60" height="30" as="geometry" />
        </mxCell>
        <mxCell id="46PoKYGcJyENt13Czsbc-35" value="1" style="text;html=1;align=center;verticalAlign=middle;whiteSpace=wrap;rounded=0;" vertex="1" parent="1">
          <mxGeometry x="950" y="835" width="60" height="30" as="geometry" />
        </mxCell>
        <mxCell id="46PoKYGcJyENt13Czsbc-36" value="Ã© ministrada por" style="endArrow=open;endSize=12;dashed=1;html=1;rounded=0;exitX=0.458;exitY=1.061;exitDx=0;exitDy=0;exitPerimeter=0;entryX=0.75;entryY=0;entryDx=0;entryDy=0;" edge="1" parent="1" source="46PoKYGcJyENt13Czsbc-20" target="46PoKYGcJyENt13Czsbc-5">
          <mxGeometry width="160" relative="1" as="geometry">
            <mxPoint x="1090" y="540" as="sourcePoint" />
            <mxPoint x="1250" y="540" as="targetPoint" />
            <Array as="points">
              <mxPoint x="1160" y="480" />
              <mxPoint x="878" y="480" />
            </Array>
          </mxGeometry>
        </mxCell>
        <mxCell id="46PoKYGcJyENt13Czsbc-37" value="possui" style="endArrow=open;endSize=12;dashed=1;html=1;rounded=0;exitX=0.999;exitY=0.954;exitDx=0;exitDy=0;exitPerimeter=0;entryX=0.48;entryY=0.004;entryDx=0;entryDy=0;entryPerimeter=0;" edge="1" parent="1" source="46PoKYGcJyENt13Czsbc-2" target="46PoKYGcJyENt13Czsbc-5">
          <mxGeometry width="160" relative="1" as="geometry">
            <mxPoint x="810" y="590" as="sourcePoint" />
            <mxPoint x="800" y="700" as="targetPoint" />
            <Array as="points">
              <mxPoint x="799" y="560" />
            </Array>
          </mxGeometry>
        </mxCell>
        <mxCell id="46PoKYGcJyENt13Czsbc-38" value="ProfessorVisitante" style="swimlane;fontStyle=1;align=center;verticalAlign=top;childLayout=stackLayout;horizontal=1;startSize=26;horizontalStack=0;resizeParent=1;resizeParentMax=0;resizeLast=0;collapsible=1;marginBottom=0;whiteSpace=wrap;html=1;" vertex="1" parent="1">
          <mxGeometry x="1410" y="185" width="280" height="220" as="geometry" />
        </mxCell>
        <mxCell id="46PoKYGcJyENt13Czsbc-39" value="- matricula: int&lt;div&gt;- nome: String&lt;/div&gt;&lt;div&gt;- email: String&lt;/div&gt;&lt;div&gt;&lt;span style=&quot;background-color: transparent; color: light-dark(rgb(0, 0, 0), rgb(255, 255, 255));&quot;&gt;- instituicaoDeOrigem: String&lt;/span&gt;&lt;/div&gt;&lt;div&gt;&lt;span style=&quot;background-color: transparent; color: light-dark(rgb(0, 0, 0), rgb(255, 255, 255));&quot;&gt;- aulasMinistradas: List&amp;lt;Aula&amp;gt;&lt;/span&gt;&lt;/div&gt;&lt;div&gt;&lt;span style=&quot;background-color: transparent; color: light-dark(rgb(0, 0, 0), rgb(255, 255, 255));&quot;&gt;- valorPorHora: int&lt;/span&gt;&lt;/div&gt;&lt;div&gt;&lt;span style=&quot;background-color: transparent; color: light-dark(rgb(0, 0, 0), rgb(255, 255, 255));&quot;&gt;- focoDeEstudo: String&lt;/span&gt;&lt;/div&gt;" style="text;strokeColor=none;fillColor=none;align=left;verticalAlign=top;spacingLeft=4;spacingRight=4;overflow=hidden;rotatable=0;points=[[0,0.5],[1,0.5]];portConstraint=eastwest;whiteSpace=wrap;html=1;" vertex="1" parent="46PoKYGcJyENt13Czsbc-38">
          <mxGeometry y="26" width="280" height="104" as="geometry" />
        </mxCell>
        <mxCell id="46PoKYGcJyENt13Czsbc-40" value="" style="line;strokeWidth=1;fillColor=none;align=left;verticalAlign=middle;spacingTop=-1;spacingLeft=3;spacingRight=3;rotatable=0;labelPosition=right;points=[];portConstraint=eastwest;strokeColor=inherit;" vertex="1" parent="46PoKYGcJyENt13Czsbc-38">
          <mxGeometry y="130" width="280" height="8" as="geometry" />
        </mxCell>
        <mxCell id="46PoKYGcJyENt13Czsbc-41" value="+ getNome(): String&lt;div&gt;# setNome(nome: String): boolean&lt;/div&gt;&lt;div&gt;# registrarAulasMinistradas(List&amp;lt;Aula&amp;gt;): boolean&lt;/div&gt;&lt;div&gt;# enviarEmailPessoal (conteudo: String): boolean&lt;/div&gt;&lt;div&gt;# depositarSalario (): boolean&lt;/div&gt;" style="text;strokeColor=none;fillColor=none;align=left;verticalAlign=top;spacingLeft=4;spacingRight=4;overflow=hidden;rotatable=0;points=[[0,0.5],[1,0.5]];portConstraint=eastwest;whiteSpace=wrap;html=1;" vertex="1" parent="46PoKYGcJyENt13Czsbc-38">
          <mxGeometry y="138" width="280" height="82" as="geometry" />
        </mxCell>
        <mxCell id="46PoKYGcJyENt13Czsbc-42" value="Extends" style="endArrow=block;endSize=16;endFill=0;html=1;rounded=0;exitX=0.001;exitY=0.01;exitDx=0;exitDy=0;exitPerimeter=0;entryX=1.003;entryY=0.826;entryDx=0;entryDy=0;entryPerimeter=0;" edge="1" parent="1" source="46PoKYGcJyENt13Czsbc-41" target="46PoKYGcJyENt13Czsbc-18">
          <mxGeometry width="160" relative="1" as="geometry">
            <mxPoint x="1230" y="450" as="sourcePoint" />
            <mxPoint x="1390" y="450" as="targetPoint" />
          </mxGeometry>
        </mxCell>
      </root>
    </mxGraphModel>
  </diagram>
</mxfile>
